<?xml version="1.0" encoding="UTF-8" standalone="no"?>
<!-- Created with Inkscape (http://www.inkscape.org/) -->

<svg
   version="1.1"
   id="svg1"
   width="484.14172"
   height="245.54884"
   viewBox="0 0 484.14173 245.54885"
   xmlns="http://www.w3.org/2000/svg"
   xmlns:svg="http://www.w3.org/2000/svg">
  <defs
     id="defs1" />
  <g
     id="g1"
     style="display:none"
     transform="translate(-8.9033796,-83.724591)">
    <g
       id="layer1"
       transform="translate(0.48792291,30.73913)">
      <rect
         style="display:inline;fill:#000000;stroke:none;stroke-width:1.58602"
         id="rect3"
         width="510.03098"
         height="368.27026"
         x="0.92417216"
         y="0.88625908" />
    </g>
  </g>
  <g
     id="layer4"
     style="display:inline"
     transform="translate(-8.9033796,-83.724591)">
    <path
       id="path5"
       style="display:inline;fill:#ce0700;stroke-width:0.92934;paint-order:markers stroke fill"
       d="m 446.90234,215.91016 a 18.175121,19.272949 0 0 0 -2.19922,0.21875 c -0.22565,-0.0556 -0.4579,-0.0937 -0.70117,-0.0937 h -11.94336 c -1.61748,0 -2.91992,1.30243 -2.91992,2.91992 v 16.44726 a 18.175121,19.272949 0 0 0 0,0.25196 v 90.5332 c 0,1.61749 1.30244,2.91992 2.91992,2.91992 h 11.94336 c 0.89655,0 1.68596,-0.40894 2.22071,-1.04101 a 40.619568,41.473434 0 0 0 1.16015,0.22851 40.619568,41.473434 0 0 0 45.33789,-35.91992 40.619568,41.473434 0 0 0 -30.95703,-45.59375 18.175121,19.272949 0 0 0 3.57031,-9.17187 18.175121,19.272949 0 0 0 -15.70312,-21.54493 l -0.14258,-0.0195 a 18.175121,19.272949 0 0 0 -2.58594,-0.13476 z m 0.0195,13.66796 a 6.221015,6.952899 0 0 1 3.38085,7.0879 6.221015,6.952899 0 0 1 -3.38085,5.29296 z m 0.75781,28.05079 a 27.201693,27.201693 0 0 1 3.87109,0.1914 l 0.21289,0.0274 a 27.201693,27.201693 0 0 1 23.5,30.4082 27.201693,27.201693 0 0 1 -28.34179,23.63672 v -54.18555 a 27.201693,27.201693 0 0 1 0.75781,-0.0781 z" />
    <path
       id="rect3-4"
       style="display:inline;fill:#ce0700;fill-opacity:1;stroke-width:0.5521;paint-order:markers stroke fill"
       d="m 215.00977,-285.30078 c 0,0.75044 0.29982,1.44454 0.81054,2.02539 0.47264,0.97276 1.45917,1.64648 2.61719,1.64648 h 1.23633 c 0.084,0.003 0.16684,0.01 0.25195,0.01 h 5.5625 c 0.0851,0 0.16793,-0.007 0.25195,-0.01 h 92.01172 c 0.33653,0.0541 0.68618,0.0859 1.04493,0.0859 h 5.56054 c 0.35882,0 0.70833,-0.0318 1.04492,-0.0859 h 0.26563 c 0.8848,0 1.66661,-0.39785 2.20117,-1.01562 0.86945,-0.66357 1.4043,-1.57454 1.4043,-2.58203 v -32.44922 c 0,-2.03998 -2.1924,-3.68164 -4.91602,-3.68164 h -5.56054 c -2.72362,0 -4.91797,1.64166 -4.91797,3.68164 v 18.26172 h -57.88868 l 0.16016,-21.40625 -1.42969,-1.74414 a 3.3823682,3.3823682 0 0 0 -4.00586,-0.93946 l -6.55468,2.95313 a 3.0279867,3.0279867 0 0 0 -1.78321,2.7793 l 0.11328,18.35742 H 230.4043 V -317.75 c 0,-2.03998 -2.1924,-3.68359 -4.91602,-3.68359 h -5.5625 c -2.72362,0 -4.91601,1.64361 -4.91601,3.68359 z"
       transform="rotate(90)" />
    <path
       id="rect9"
       style="display:inline;fill:#ce0700;fill-opacity:1;paint-order:markers stroke fill"
       d="m 222.73047,216.13281 -9.95313,0.11328 c -2.42962,0.0295 -3.43778,2.93358 -3.6875,6.48243 l 23.15625,29.4414 v 1.63086 h -0.0391 c -0.96918,0.0118 -0.49301,0.21448 0.0391,0.10156 v 72.88868 c 0,1.29285 1.30243,2.33398 2.91993,2.33398 h 11.94336 c 1.61749,0 2.91992,-1.04113 2.91992,-2.33398 v -72.15821 c 0.43225,0.0476 0.69746,-0.0907 0,-0.11719 v -1.82812 l 23.00781,-29.25 c -0.24972,-3.54885 -1.25787,-6.4549 -3.6875,-6.48438 l -9.95313,-0.11328 c -1.28193,-0.0155 -12.18563,15.01538 -16.67187,21.90821 h -2.86523 c -4.15499,-6.51137 -15.80198,-22.63132 -17.12891,-22.61524 z" />
    <path
       id="rect2"
       style="display:inline;fill:#ececec;fill-opacity:1;stroke-width:1.00932;paint-order:markers stroke fill"
       d="m 407.03906,215.26367 c -1.61749,0 -2.57714,1.36287 -2.91992,2.97461 l -11.9707,56.28516 -15.16992,-56.85547 -0.0723,0.10937 v -0.11718 h -6.68555 v 0.0762 l -0.0215,-0.0332 -15.52149,58.17188 -12.25195,-57.61133 c -0.34278,-1.61174 -1.30243,-2.97461 -2.91992,-2.97461 h -10.89258 c -1.61749,0 -3.26926,1.36429 -2.91992,2.97461 l 23.63281,108.93945 c 0.34934,1.61032 -0.42129,0.67883 1.19531,0.73243 l 5.20118,0.17187 c 0.19634,0.007 0.42807,-0.30653 0.68359,-0.84375 l 0.16602,0.67188 17.02148,-65.79493 11.97656,46.28907 c 0.86101,5.05452 3.89221,19.6994 5.25196,19.65429 l 5.20117,-0.17382 c 1.61661,-0.0536 0.84597,0.87985 1.19531,-0.73047 l 23.63281,-108.94141 c 0.34934,-1.61032 -1.30243,-2.97461 -2.91992,-2.97461 z" />
    <path
       id="path1"
       style="display:inline;fill:#ececec;fill-opacity:1;stroke-width:0.695369"
       d="m 59.36333,83.725314 c -0.02074,0.002 -0.04171,0.008 -0.06131,0.018 l -13.2631,7.2496 c -0.07838,0.0429 -0.108069,0.14155 -0.0663,0.22194 l 6.90237,13.282976 a 103.55424,104.89448 88.94827 0 0 -43.7258048,76.95761 103.55424,104.89448 88.94827 0 0 64.8632208,102.8719 103.55424,104.89448 88.94827 0 0 82.468124,-1.28929 l 5.69902,10.96481 c 0.0418,0.0804 0.13802,0.11083 0.2164,0.0679 l 13.26434,-7.24957 c 0.0784,-0.0429 0.10682,-0.14155 0.0651,-0.22194 l -5.6102,-10.79804 a 103.55424,104.89448 88.94827 0 0 22.65846,-19.21503 l -24.66988,1.49712 A 88.682002,88.869971 13.638447 0 1 98.607273,276.27592 88.682002,88.869971 13.638447 0 1 25.40192,174.45725 88.682002,88.869971 13.638447 0 1 74.336409,108.9904 L 87.633283,88.221794 a 103.55424,104.89448 88.94827 0 0 -21.500156,8.31694 l -6.613434,-12.72746 c -0.0313,-0.0603 -0.09413,-0.0918 -0.156363,-0.086 z" />
    <path
       id="rect7"
       style="display:inline;fill:#ececec;fill-opacity:1;stroke-width:0.648592"
       d="m 80.951074,298.16877 h 60.529366 c 0.0888,0 -0.0599,0.0702 -0.0599,0.0702 l 12.80902,15.06439 c 0.0584,0.0686 -0.0715,0.16443 -0.16032,0.16443 H 68.086661 c -0.08882,0 -0.160318,-0.0733 -0.160318,-0.16443 L 80.73537,298.23897 Z" />
    <g
       id="g3"
       transform="translate(-189.7238,41.345731)"
       style="display:inline">
      <ellipse
         style="display:inline;fill:#ececec;stroke:none;stroke-width:1.2893"
         id="path2"
         cx="306.43552"
         cy="142.45244"
         rx="80.884048"
         ry="79.125114" />
      <path
         id="path7-1"
         style="display:inline;fill:#ce0700;fill-opacity:1;stroke-width:0.7826"
         d="m 304.56152,62.774639 a 81.348824,81.564187 0 0 0 -78.9444,71.574661 81.348824,81.564187 0 0 0 70.63604,90.9026 81.348824,81.564187 0 0 0 90.8015,-70.64458 81.348824,81.564187 0 0 0 -2.2741,-31.94124 l -4.3268,1.30469 c -0.50935,0.2316 -0.24265,0.11704 -0.93941,0.42977 a 69.008378,72.941385 0 0 1 1.19959,25.50117 69.008378,72.941385 0 0 1 -3.07216,13.55752 l -24.00568,11.97315 a 95.196646,95.181918 0 0 0 1.48855,-8.38365 95.196646,95.181918 0 0 0 -1.27214,-31.51148 c -8.86045,3.79807 -19.71464,8.43262 -34.74449,14.8109 a 46.587554,61.349935 0 0 0 -14.6691,-42.58277 l 34.2579,-7.23161 A 95.196646,95.181918 0 0 0 311.60773,74.659279 l 23.77676,-2.67353 a 69.008378,72.941385 0 0 1 30.37391,22.66984 l 4.12791,-1.2444 a 81.348824,81.564187 0 0 0 -53.10993,-29.98484 l -0.6367,-0.0796 a 81.348824,81.564187 0 0 0 -11.57816,-0.57216 z" />
    </g>
  </g>
</svg>
